<?xml version="1.0" encoding="UTF-8" standalone="yes"?>
<!DOCTYPE svg PUBLIC "-//W3C//DTD SVG 1.1//EN" "http://www.w3.org/Graphics/SVG/1.1/DTD/svg11.dtd">

<svg width="1080" height="1080" viewBox="0 0 1080 1080" xmlns="http://www.w3.org/2000/svg" xmlns:xlink="http://www.w3.org/1999/xlink" version="1.1" baseProfile="full">
    <g transform="scale(1.000000,-1.000000) translate(0,-1080)">
        <path d="M 1.000000 1.000000 L 1081.000000 1.000000 L 1081.000000 1081.000000 L 1.000000 1081.000000 Z" transform="scale(1.000000,1.000000) translate(-1.000000,-1.000000)" fill="#bfe2fe" opacity="1.000000"></path>
        <path d="M 47.353516 20.037109 L 20.142578 20.037109 L 14.236328 2.107422 L 1.000000 2.107422 L 27.789062 78.888672 L 39.970703 78.888672 L 66.443359 2.107422 L 53.207031 2.107422 Z M 23.675781 30.742188 L 43.873047 30.742188 L 34.011719 61.011719 L 33.695312 61.011719 Z M 103.041016 47.617188 L 97.556641 47.828125 Q 93.812500 47.828125 91.307617 46.246094 Q 88.802734 44.664062 87.431641 41.763672 L 87.431641 2.107422 L 74.617188 2.107422 L 74.617188 59.166016 L 86.324219 59.166016 L 87.167969 50.886719 Q 89.330078 55.263672 92.731445 57.742188 Q 96.132812 60.220703 100.562500 60.220703 Q 101.722656 60.220703 102.724609 60.036133 Q 103.726562 59.851562 104.570312 59.587891 Z M 128.933594 73.035156 L 128.933594 59.166016 L 139.164062 59.166016 L 139.164062 49.673828 L 128.933594 49.673828 L 128.933594 18.138672 Q 128.933594 14.605469 130.462891 13.102539 Q 131.992188 11.599609 134.523438 11.599609 Q 135.578125 11.599609 136.580078 11.784180 Q 137.582031 11.968750 138.478516 12.285156 L 139.849609 2.898438 Q 138.214844 2.001953 135.973633 1.500977 Q 133.732422 1.000000 131.306641 1.000000 Q 124.240234 1.000000 120.206055 5.139648 Q 116.171875 9.279297 116.171875 18.138672 L 116.171875 49.673828 L 107.470703 49.673828 L 107.470703 59.166016 L 116.171875 59.166016 L 116.171875 73.035156 Z M 147.126953 31.164062 Q 147.126953 43.925781 154.114258 52.073242 Q 161.101562 60.220703 173.230469 60.220703 Q 185.517578 60.220703 192.504883 52.073242 Q 199.492188 43.925781 199.492188 31.164062 L 199.492188 30.056641 Q 199.492188 17.189453 192.504883 9.094727 Q 185.517578 1.000000 173.335938 1.000000 Q 161.101562 1.000000 154.114258 9.121094 Q 147.126953 17.242188 147.126953 30.056641 Z M 159.941406 30.056641 Q 159.941406 21.671875 163.210938 16.451172 Q 166.480469 11.230469 173.335938 11.230469 Q 180.033203 11.230469 183.381836 16.477539 Q 186.730469 21.724609 186.730469 30.056641 L 186.730469 31.164062 Q 186.730469 39.337891 183.381836 44.637695 Q 180.033203 49.937500 173.230469 49.937500 Q 166.533203 49.937500 163.237305 44.637695 Q 159.941406 39.337891 159.941406 31.164062 Z M 222.273438 59.166016 L 223.011719 50.939453 Q 225.806641 55.316406 230.051758 57.768555 Q 234.296875 60.220703 239.623047 60.220703 Q 248.535156 60.220703 253.518555 54.736328 Q 258.501953 49.251953 258.501953 37.597656 L 258.501953 2.107422 L 245.687500 2.107422 L 245.687500 37.492188 Q 245.687500 44.136719 243.103516 46.931641 Q 240.519531 49.726562 235.298828 49.726562 Q 231.185547 49.726562 228.179688 48.170898 Q 225.173828 46.615234 223.380859 43.873047 L 223.380859 2.107422 L 210.566406 2.107422 L 210.566406 59.166016 Z M 319.146484 35.330078 L 312.871094 35.330078 L 312.871094 2.107422 L 300.056641 2.107422 L 300.056641 78.888672 L 312.871094 78.888672 L 312.871094 46.351562 L 317.880859 46.351562 L 342.824219 78.888672 L 357.853516 78.888672 L 358.011719 78.625000 L 329.218750 42.554688 L 360.384766 2.107422 L 344.195312 2.107422 Z M 365.130859 31.164062 Q 365.130859 43.925781 372.118164 52.073242 Q 379.105469 60.220703 391.234375 60.220703 Q 403.521484 60.220703 410.508789 52.073242 Q 417.496094 43.925781 417.496094 31.164062 L 417.496094 30.056641 Q 417.496094 17.189453 410.508789 9.094727 Q 403.521484 1.000000 391.339844 1.000000 Q 379.105469 1.000000 372.118164 9.121094 Q 365.130859 17.242188 365.130859 30.056641 Z M 377.945312 30.056641 Q 377.945312 21.671875 381.214844 16.451172 Q 384.484375 11.230469 391.339844 11.230469 Q 398.037109 11.230469 401.385742 16.477539 Q 404.734375 21.724609 404.734375 30.056641 L 404.734375 31.164062 Q 404.734375 39.337891 401.385742 44.637695 Q 398.037109 49.937500 391.234375 49.937500 Q 384.537109 49.937500 381.241211 44.637695 Q 377.945312 39.337891 377.945312 31.164062 Z M 446.236328 27.050781 L 441.490234 27.050781 L 441.490234 2.107422 L 428.728516 2.107422 L 428.728516 84.373047 L 441.490234 84.373047 L 441.490234 37.333984 L 445.867188 37.333984 L 461.318359 59.166016 L 476.347656 59.166016 L 456.783203 32.904297 L 478.509766 2.107422 L 463.585938 2.107422 Z M 482.833984 31.164062 Q 482.833984 43.925781 489.821289 52.073242 Q 496.808594 60.220703 508.937500 60.220703 Q 521.224609 60.220703 528.211914 52.073242 Q 535.199219 43.925781 535.199219 31.164062 L 535.199219 30.056641 Q 535.199219 17.189453 528.211914 9.094727 Q 521.224609 1.000000 509.042969 1.000000 Q 496.808594 1.000000 489.821289 9.121094 Q 482.833984 17.242188 482.833984 30.056641 Z M 495.648438 30.056641 Q 495.648438 21.671875 498.917969 16.451172 Q 502.187500 11.230469 509.042969 11.230469 Q 515.740234 11.230469 519.088867 16.477539 Q 522.437500 21.724609 522.437500 30.056641 L 522.437500 31.164062 Q 522.437500 39.337891 519.088867 44.637695 Q 515.740234 49.937500 508.937500 49.937500 Q 502.240234 49.937500 498.944336 44.637695 Q 495.648438 39.337891 495.648438 31.164062 Z M 560.037109 2.107422 L 547.222656 2.107422 L 547.222656 84.373047 L 560.037109 84.373047 Z M 588.039062 2.107422 L 575.224609 2.107422 L 575.224609 84.373047 L 588.039062 84.373047 Z M 636.765625 2.107422 Q 636.080078 4.269531 635.631836 6.326172 Q 635.183594 8.382812 635.025391 10.439453 Q 632.441406 6.431641 628.117188 3.715820 Q 623.792969 1.000000 618.466797 1.000000 Q 609.554688 1.000000 604.782227 5.587891 Q 600.009766 10.175781 600.009766 18.191406 Q 600.009766 26.470703 606.548828 31.084961 Q 613.087891 35.699219 624.953125 35.699219 L 634.919922 35.699219 L 634.919922 40.708984 Q 634.919922 45.191406 632.309570 47.722656 Q 629.699219 50.253906 624.742188 50.253906 Q 620.365234 50.253906 617.781250 48.170898 Q 615.197266 46.087891 615.197266 42.765625 L 602.857422 42.712891 L 602.804688 43.029297 Q 602.435547 49.779297 608.842773 55.000000 Q 615.250000 60.220703 625.533203 60.220703 Q 635.500000 60.220703 641.617188 55.158203 Q 647.734375 50.095703 647.734375 40.603516 L 647.734375 15.238281 Q 647.734375 11.705078 648.208984 8.461914 Q 648.683594 5.218750 649.738281 2.107422 Z M 621.103516 11.283203 Q 625.902344 11.283203 629.778320 13.708984 Q 633.654297 16.134766 634.919922 19.246094 L 634.919922 27.683594 L 624.742188 27.683594 Q 619.152344 27.683594 615.988281 24.915039 Q 612.824219 22.146484 612.824219 18.402344 Q 612.824219 15.132812 614.959961 13.208008 Q 617.095703 11.283203 621.103516 11.283203 Z M 689.552734 47.617188 L 684.068359 47.828125 Q 680.324219 47.828125 677.819336 46.246094 Q 675.314453 44.664062 673.943359 41.763672 L 673.943359 2.107422 L 661.128906 2.107422 L 661.128906 59.166016 L 672.835938 59.166016 L 673.679688 50.886719 Q 675.841797 55.263672 679.243164 57.742188 Q 682.644531 60.220703 687.074219 60.220703 Q 688.234375 60.220703 689.236328 60.036133 Q 690.238281 59.851562 691.082031 59.587891 Z M 712.703125 2.107422 L 699.888672 2.107422 L 699.888672 59.166016 L 712.703125 59.166016 Z M 712.703125 73.140625 L 699.888672 73.140625 L 699.888672 84.373047 L 712.703125 84.373047 Z" transform="scale(1.000000,1.000000) translate(183.148438,189.158624)" fill="#4ca5f7" opacity="1.000000"></path>
        <path d="M 66.038729 154.835898 Q 76.730027 238.584398 138.501970 295.604653 Q 200.273914 352.921889 300.454641 362.128285 L 300.454641 154.835898 Z M 325.551595 426.870033 Q 191.910371 426.870033 95.736779 342.230591 Q 1.000000 255.215306 1.000000 123.355965 L 1.000000 1.000000 L 63.959865 1.000000 L 63.959865 91.579052 L 300.454641 91.579052 L 300.454641 1.000000 L 363.414507 1.000000 L 363.414507 426.870033 Z M 601.910782 427.167014 L 363.138462 202.649758 L 363.138462 427.167014 L 300.178597 425.646473 L 300.178597 1.000000 L 363.138462 1.000000 L 363.138462 115.931452 L 446.886962 194.631284 L 601.019840 1.000000 L 681.501555 1.000000 L 492.918939 237.990437 L 693.974736 427.167014 Z" transform="scale(1.000000,1.000000) translate(183.244517,337.360108)" fill="#1918fe" opacity="1.000000"></path>
    </g>
</svg>